ISO-10303-21;
HEADER;
/* Generated by software containing ST-Developer
 * from STEP Tools, Inc. (www.steptools.com) 
 */

FILE_DESCRIPTION(
/* description */ (''),
/* implementation_level */ '2;1');

FILE_NAME(
/* name */ '3x6x2.5 Bearing.step',
/* time_stamp */ '2024-09-30T03:16:48-07:00',
/* author */ (''),
/* organization */ (''),
/* preprocessor_version */ 'ST-DEVELOPER v20',
/* originating_system */ 'Autodesk Translation Framework v13.20.0.188',

/* authorisation */ '');

FILE_SCHEMA (('AUTOMOTIVE_DESIGN { 1 0 10303 214 3 1 1 }'));
ENDSEC;

DATA;
#10=MECHANICAL_DESIGN_GEOMETRIC_PRESENTATION_REPRESENTATION('',(#21,#22,
#23,#24,#25,#26,#27,#28,#29,#30,#31,#32,#33),#1014);
#11=SHAPE_REPRESENTATION_RELATIONSHIP('SRR','None',#1021,#12);
#12=ADVANCED_BREP_SHAPE_REPRESENTATION('',(#34,#35,#36,#37,#38,#39,#40,
#41,#42,#43,#44,#45,#46),#1013);
#13=SPHERICAL_SURFACE('',#593,0.499999999999999);
#14=SPHERICAL_SURFACE('',#595,0.499999999999999);
#15=SPHERICAL_SURFACE('',#597,0.499999999999999);
#16=SPHERICAL_SURFACE('',#599,0.499999999999999);
#17=SPHERICAL_SURFACE('',#601,0.499999999999999);
#18=SPHERICAL_SURFACE('',#603,0.499999999999999);
#19=SPHERICAL_SURFACE('',#605,0.499999999999999);
#20=SPHERICAL_SURFACE('',#607,0.499999999999999);
#21=STYLED_ITEM('',(#1030),#34);
#22=STYLED_ITEM('',(#1030),#35);
#23=STYLED_ITEM('',(#1030),#36);
#24=STYLED_ITEM('',(#1030),#37);
#25=STYLED_ITEM('',(#1030),#38);
#26=STYLED_ITEM('',(#1030),#39);
#27=STYLED_ITEM('',(#1030),#40);
#28=STYLED_ITEM('',(#1030),#41);
#29=STYLED_ITEM('',(#1030),#42);
#30=STYLED_ITEM('',(#1030),#43);
#31=STYLED_ITEM('',(#1030),#44);
#32=STYLED_ITEM('',(#1031),#45);
#33=STYLED_ITEM('',(#1031),#46);
#34=MANIFOLD_SOLID_BREP('Body1',#549);
#35=MANIFOLD_SOLID_BREP('Body2',#550);
#36=MANIFOLD_SOLID_BREP('Body3',#551);
#37=MANIFOLD_SOLID_BREP('Body4',#552);
#38=MANIFOLD_SOLID_BREP('Body5',#553);
#39=MANIFOLD_SOLID_BREP('Body6',#554);
#40=MANIFOLD_SOLID_BREP('Body7',#555);
#41=MANIFOLD_SOLID_BREP('Body8',#556);
#42=MANIFOLD_SOLID_BREP('Body9',#557);
#43=MANIFOLD_SOLID_BREP('Body10',#558);
#44=MANIFOLD_SOLID_BREP('Body11',#559);
#45=MANIFOLD_SOLID_BREP('Body12',#560);
#46=MANIFOLD_SOLID_BREP('Body13',#561);
#47=FACE_BOUND('',#130,.T.);
#48=FACE_BOUND('',#132,.T.);
#49=FACE_BOUND('',#144,.T.);
#50=FACE_BOUND('',#146,.T.);
#51=FACE_BOUND('',#150,.T.);
#52=FACE_BOUND('',#152,.T.);
#53=FACE_BOUND('',#160,.T.);
#54=FACE_BOUND('',#162,.T.);
#55=FACE_BOUND('',#170,.T.);
#56=FACE_BOUND('',#172,.T.);
#57=PLANE('',#591);
#58=PLANE('',#592);
#59=PLANE('',#615);
#60=PLANE('',#616);
#61=PLANE('',#623);
#62=PLANE('',#624);
#63=PLANE('',#641);
#64=PLANE('',#642);
#65=PLANE('',#659);
#66=PLANE('',#660);
#67=TOROIDAL_SURFACE('',#585,2.2525,0.5);
#68=TOROIDAL_SURFACE('',#631,2.2525,0.5);
#69=TOROIDAL_SURFACE('',#643,2.2525,0.5);
#70=CYLINDRICAL_SURFACE('',#582,2.63);
#71=CYLINDRICAL_SURFACE('',#588,2.63);
#72=CYLINDRICAL_SURFACE('',#590,3.);
#73=CYLINDRICAL_SURFACE('',#609,2.63);
#74=CYLINDRICAL_SURFACE('',#612,1.875);
#75=CYLINDRICAL_SURFACE('',#617,1.875);
#76=CYLINDRICAL_SURFACE('',#620,2.63);
#77=CYLINDRICAL_SURFACE('',#628,2.63);
#78=CYLINDRICAL_SURFACE('',#634,2.63);
#79=CYLINDRICAL_SURFACE('',#640,3.);
#80=CYLINDRICAL_SURFACE('',#647,1.875);
#81=CYLINDRICAL_SURFACE('',#652,1.5);
#82=CYLINDRICAL_SURFACE('',#657,1.875);
#83=FACE_OUTER_BOUND('',#123,.T.);
#84=FACE_OUTER_BOUND('',#124,.T.);
#85=FACE_OUTER_BOUND('',#125,.T.);
#86=FACE_OUTER_BOUND('',#126,.T.);
#87=FACE_OUTER_BOUND('',#127,.T.);
#88=FACE_OUTER_BOUND('',#128,.T.);
#89=FACE_OUTER_BOUND('',#129,.T.);
#90=FACE_OUTER_BOUND('',#131,.T.);
#91=FACE_OUTER_BOUND('',#133,.T.);
#92=FACE_OUTER_BOUND('',#134,.T.);
#93=FACE_OUTER_BOUND('',#135,.T.);
#94=FACE_OUTER_BOUND('',#136,.T.);
#95=FACE_OUTER_BOUND('',#137,.T.);
#96=FACE_OUTER_BOUND('',#138,.T.);
#97=FACE_OUTER_BOUND('',#139,.T.);
#98=FACE_OUTER_BOUND('',#140,.T.);
#99=FACE_OUTER_BOUND('',#141,.T.);
#100=FACE_OUTER_BOUND('',#142,.T.);
#101=FACE_OUTER_BOUND('',#143,.T.);
#102=FACE_OUTER_BOUND('',#145,.T.);
#103=FACE_OUTER_BOUND('',#147,.T.);
#104=FACE_OUTER_BOUND('',#148,.T.);
#105=FACE_OUTER_BOUND('',#149,.T.);
#106=FACE_OUTER_BOUND('',#151,.T.);
#107=FACE_OUTER_BOUND('',#153,.T.);
#108=FACE_OUTER_BOUND('',#154,.T.);
#109=FACE_OUTER_BOUND('',#155,.T.);
#110=FACE_OUTER_BOUND('',#156,.T.);
#111=FACE_OUTER_BOUND('',#157,.T.);
#112=FACE_OUTER_BOUND('',#158,.T.);
#113=FACE_OUTER_BOUND('',#159,.T.);
#114=FACE_OUTER_BOUND('',#161,.T.);
#115=FACE_OUTER_BOUND('',#163,.T.);
#116=FACE_OUTER_BOUND('',#164,.T.);
#117=FACE_OUTER_BOUND('',#165,.T.);
#118=FACE_OUTER_BOUND('',#166,.T.);
#119=FACE_OUTER_BOUND('',#167,.T.);
#120=FACE_OUTER_BOUND('',#168,.T.);
#121=FACE_OUTER_BOUND('',#169,.T.);
#122=FACE_OUTER_BOUND('',#171,.T.);
#123=EDGE_LOOP('',(#373,#374,#375,#376,#377));
#124=EDGE_LOOP('',(#378,#379,#380,#381));
#125=EDGE_LOOP('',(#382,#383,#384,#385));
#126=EDGE_LOOP('',(#386,#387,#388,#389));
#127=EDGE_LOOP('',(#390,#391,#392,#393));
#128=EDGE_LOOP('',(#394,#395,#396,#397,#398));
#129=EDGE_LOOP('',(#399));
#130=EDGE_LOOP('',(#400));
#131=EDGE_LOOP('',(#401));
#132=EDGE_LOOP('',(#402));
#133=EDGE_LOOP('',(#403,#404));
#134=EDGE_LOOP('',(#405,#406));
#135=EDGE_LOOP('',(#407,#408));
#136=EDGE_LOOP('',(#409,#410));
#137=EDGE_LOOP('',(#411,#412));
#138=EDGE_LOOP('',(#413,#414));
#139=EDGE_LOOP('',(#415,#416));
#140=EDGE_LOOP('',(#417,#418));
#141=EDGE_LOOP('',(#419,#420,#421,#422));
#142=EDGE_LOOP('',(#423,#424,#425,#426));
#143=EDGE_LOOP('',(#427));
#144=EDGE_LOOP('',(#428));
#145=EDGE_LOOP('',(#429));
#146=EDGE_LOOP('',(#430));
#147=EDGE_LOOP('',(#431,#432,#433,#434));
#148=EDGE_LOOP('',(#435,#436,#437,#438));
#149=EDGE_LOOP('',(#439));
#150=EDGE_LOOP('',(#440));
#151=EDGE_LOOP('',(#441));
#152=EDGE_LOOP('',(#442));
#153=EDGE_LOOP('',(#443,#444,#445,#446));
#154=EDGE_LOOP('',(#447,#448,#449,#450));
#155=EDGE_LOOP('',(#451,#452,#453,#454));
#156=EDGE_LOOP('',(#455,#456,#457,#458));
#157=EDGE_LOOP('',(#459,#460,#461,#462,#463));
#158=EDGE_LOOP('',(#464,#465,#466,#467,#468));
#159=EDGE_LOOP('',(#469));
#160=EDGE_LOOP('',(#470));
#161=EDGE_LOOP('',(#471));
#162=EDGE_LOOP('',(#472));
#163=EDGE_LOOP('',(#473,#474,#475,#476));
#164=EDGE_LOOP('',(#477,#478,#479,#480));
#165=EDGE_LOOP('',(#481,#482,#483,#484));
#166=EDGE_LOOP('',(#485,#486,#487,#488,#489));
#167=EDGE_LOOP('',(#490,#491,#492,#493,#494));
#168=EDGE_LOOP('',(#495,#496,#497,#498));
#169=EDGE_LOOP('',(#499));
#170=EDGE_LOOP('',(#500));
#171=EDGE_LOOP('',(#501));
#172=EDGE_LOOP('',(#502));
#173=LINE('',#861,#192);
#174=LINE('',#867,#193);
#175=LINE('',#873,#194);
#176=LINE('',#881,#195);
#177=LINE('',#884,#196);
#178=LINE('',#923,#197);
#179=LINE('',#929,#198);
#180=LINE('',#937,#199);
#181=LINE('',#943,#200);
#182=LINE('',#951,#201);
#183=LINE('',#957,#202);
#184=LINE('',#965,#203);
#185=LINE('',#972,#204);
#186=LINE('',#976,#205);
#187=LINE('',#988,#206);
#188=LINE('',#993,#207);
#189=LINE('',#1000,#208);
#190=LINE('',#1003,#209);
#191=LINE('',#1007,#210);
#192=VECTOR('',#669,2.875);
#193=VECTOR('',#676,3.);
#194=VECTOR('',#683,2.63);
#195=VECTOR('',#694,2.63);
#196=VECTOR('',#699,3.);
#197=VECTOR('',#740,2.63);
#198=VECTOR('',#747,1.875);
#199=VECTOR('',#758,1.875);
#200=VECTOR('',#765,2.63);
#201=VECTOR('',#776,2.875);
#202=VECTOR('',#783,2.63);
#203=VECTOR('',#794,2.63);
#204=VECTOR('',#801,3.);
#205=VECTOR('',#808,3.);
#206=VECTOR('',#825,1.875);
#207=VECTOR('',#830,1.63);
#208=VECTOR('',#839,1.5);
#209=VECTOR('',#842,1.5);
#210=VECTOR('',#847,1.875);
#211=CIRCLE('',#576,3.);
#212=CIRCLE('',#577,3.);
#213=CIRCLE('',#578,2.875);
#214=CIRCLE('',#580,3.);
#215=CIRCLE('',#581,2.875);
#216=CIRCLE('',#583,2.63);
#217=CIRCLE('',#584,2.63);
#218=CIRCLE('',#586,0.5);
#219=CIRCLE('',#587,2.63);
#220=CIRCLE('',#589,2.63);
#221=CIRCLE('',#594,0.499999999999999);
#222=CIRCLE('',#596,0.5);
#223=CIRCLE('',#598,0.499999999999999);
#224=CIRCLE('',#600,0.5);
#225=CIRCLE('',#602,0.499999999999999);
#226=CIRCLE('',#604,0.499999999999999);
#227=CIRCLE('',#606,0.499999999999999);
#228=CIRCLE('',#608,0.5);
#229=CIRCLE('',#610,2.63);
#230=CIRCLE('',#611,2.63);
#231=CIRCLE('',#613,1.875);
#232=CIRCLE('',#614,1.875);
#233=CIRCLE('',#618,1.875);
#234=CIRCLE('',#619,1.875);
#235=CIRCLE('',#621,2.63);
#236=CIRCLE('',#622,2.63);
#237=CIRCLE('',#626,3.);
#238=CIRCLE('',#627,2.875);
#239=CIRCLE('',#629,2.63);
#240=CIRCLE('',#630,2.63);
#241=CIRCLE('',#632,0.5);
#242=CIRCLE('',#633,2.63);
#243=CIRCLE('',#635,2.63);
#244=CIRCLE('',#637,3.);
#245=CIRCLE('',#638,2.875);
#246=CIRCLE('',#639,3.);
#247=CIRCLE('',#644,1.875);
#248=CIRCLE('',#645,0.5);
#249=CIRCLE('',#646,1.875);
#250=CIRCLE('',#648,1.875);
#251=CIRCLE('',#650,1.5);
#252=CIRCLE('',#651,1.63);
#253=CIRCLE('',#653,1.5);
#254=CIRCLE('',#654,1.5);
#255=CIRCLE('',#656,1.63);
#256=CIRCLE('',#658,1.875);
#257=VERTEX_POINT('',#856);
#258=VERTEX_POINT('',#857);
#259=VERTEX_POINT('',#860);
#260=VERTEX_POINT('',#864);
#261=VERTEX_POINT('',#866);
#262=VERTEX_POINT('',#870);
#263=VERTEX_POINT('',#872);
#264=VERTEX_POINT('',#876);
#265=VERTEX_POINT('',#880);
#266=VERTEX_POINT('',#888);
#267=VERTEX_POINT('',#889);
#268=VERTEX_POINT('',#892);
#269=VERTEX_POINT('',#893);
#270=VERTEX_POINT('',#896);
#271=VERTEX_POINT('',#897);
#272=VERTEX_POINT('',#900);
#273=VERTEX_POINT('',#901);
#274=VERTEX_POINT('',#904);
#275=VERTEX_POINT('',#905);
#276=VERTEX_POINT('',#908);
#277=VERTEX_POINT('',#909);
#278=VERTEX_POINT('',#912);
#279=VERTEX_POINT('',#913);
#280=VERTEX_POINT('',#916);
#281=VERTEX_POINT('',#917);
#282=VERTEX_POINT('',#920);
#283=VERTEX_POINT('',#922);
#284=VERTEX_POINT('',#926);
#285=VERTEX_POINT('',#928);
#286=VERTEX_POINT('',#934);
#287=VERTEX_POINT('',#936);
#288=VERTEX_POINT('',#940);
#289=VERTEX_POINT('',#942);
#290=VERTEX_POINT('',#948);
#291=VERTEX_POINT('',#950);
#292=VERTEX_POINT('',#954);
#293=VERTEX_POINT('',#956);
#294=VERTEX_POINT('',#960);
#295=VERTEX_POINT('',#964);
#296=VERTEX_POINT('',#968);
#297=VERTEX_POINT('',#969);
#298=VERTEX_POINT('',#971);
#299=VERTEX_POINT('',#980);
#300=VERTEX_POINT('',#982);
#301=VERTEX_POINT('',#986);
#302=VERTEX_POINT('',#990);
#303=VERTEX_POINT('',#992);
#304=VERTEX_POINT('',#996);
#305=VERTEX_POINT('',#997);
#306=VERTEX_POINT('',#1002);
#307=VERTEX_POINT('',#1006);
#308=EDGE_CURVE('',#257,#258,#211,.T.);
#309=EDGE_CURVE('',#258,#257,#212,.T.);
#310=EDGE_CURVE('',#258,#259,#173,.T.);
#311=EDGE_CURVE('',#259,#259,#213,.T.);
#312=EDGE_CURVE('',#260,#260,#214,.T.);
#313=EDGE_CURVE('',#260,#261,#174,.T.);
#314=EDGE_CURVE('',#261,#261,#215,.T.);
#315=EDGE_CURVE('',#262,#262,#216,.T.);
#316=EDGE_CURVE('',#262,#263,#175,.T.);
#317=EDGE_CURVE('',#263,#263,#217,.T.);
#318=EDGE_CURVE('',#263,#264,#218,.T.);
#319=EDGE_CURVE('',#264,#264,#219,.T.);
#320=EDGE_CURVE('',#264,#265,#176,.T.);
#321=EDGE_CURVE('',#265,#265,#220,.T.);
#322=EDGE_CURVE('',#257,#260,#177,.T.);
#323=EDGE_CURVE('',#266,#267,#221,.T.);
#324=EDGE_CURVE('',#268,#269,#222,.T.);
#325=EDGE_CURVE('',#270,#271,#223,.T.);
#326=EDGE_CURVE('',#272,#273,#224,.T.);
#327=EDGE_CURVE('',#274,#275,#225,.T.);
#328=EDGE_CURVE('',#276,#277,#226,.T.);
#329=EDGE_CURVE('',#278,#279,#227,.T.);
#330=EDGE_CURVE('',#280,#281,#228,.T.);
#331=EDGE_CURVE('',#282,#282,#229,.T.);
#332=EDGE_CURVE('',#282,#283,#178,.T.);
#333=EDGE_CURVE('',#283,#283,#230,.T.);
#334=EDGE_CURVE('',#284,#284,#231,.T.);
#335=EDGE_CURVE('',#284,#285,#179,.T.);
#336=EDGE_CURVE('',#285,#285,#232,.T.);
#337=EDGE_CURVE('',#286,#286,#233,.T.);
#338=EDGE_CURVE('',#286,#287,#180,.T.);
#339=EDGE_CURVE('',#287,#287,#234,.T.);
#340=EDGE_CURVE('',#288,#288,#235,.T.);
#341=EDGE_CURVE('',#288,#289,#181,.T.);
#342=EDGE_CURVE('',#289,#289,#236,.T.);
#343=EDGE_CURVE('',#290,#290,#237,.T.);
#344=EDGE_CURVE('',#290,#291,#182,.T.);
#345=EDGE_CURVE('',#291,#291,#238,.T.);
#346=EDGE_CURVE('',#292,#292,#239,.T.);
#347=EDGE_CURVE('',#292,#293,#183,.T.);
#348=EDGE_CURVE('',#293,#293,#240,.T.);
#349=EDGE_CURVE('',#293,#294,#241,.T.);
#350=EDGE_CURVE('',#294,#294,#242,.T.);
#351=EDGE_CURVE('',#294,#295,#184,.T.);
#352=EDGE_CURVE('',#295,#295,#243,.T.);
#353=EDGE_CURVE('',#296,#297,#244,.T.);
#354=EDGE_CURVE('',#297,#298,#185,.T.);
#355=EDGE_CURVE('',#298,#298,#245,.T.);
#356=EDGE_CURVE('',#297,#296,#246,.T.);
#357=EDGE_CURVE('',#296,#290,#186,.T.);
#358=EDGE_CURVE('',#299,#299,#247,.T.);
#359=EDGE_CURVE('',#299,#300,#248,.T.);
#360=EDGE_CURVE('',#300,#300,#249,.T.);
#361=EDGE_CURVE('',#301,#301,#250,.T.);
#362=EDGE_CURVE('',#301,#299,#187,.T.);
#363=EDGE_CURVE('',#302,#302,#251,.T.);
#364=EDGE_CURVE('',#302,#303,#188,.T.);
#365=EDGE_CURVE('',#303,#303,#252,.T.);
#366=EDGE_CURVE('',#304,#305,#253,.T.);
#367=EDGE_CURVE('',#305,#304,#254,.T.);
#368=EDGE_CURVE('',#305,#302,#189,.T.);
#369=EDGE_CURVE('',#304,#306,#190,.T.);
#370=EDGE_CURVE('',#306,#306,#255,.T.);
#371=EDGE_CURVE('',#300,#307,#191,.T.);
#372=EDGE_CURVE('',#307,#307,#256,.T.);
#373=ORIENTED_EDGE('',*,*,#308,.F.);
#374=ORIENTED_EDGE('',*,*,#309,.F.);
#375=ORIENTED_EDGE('',*,*,#310,.T.);
#376=ORIENTED_EDGE('',*,*,#311,.F.);
#377=ORIENTED_EDGE('',*,*,#310,.F.);
#378=ORIENTED_EDGE('',*,*,#312,.F.);
#379=ORIENTED_EDGE('',*,*,#313,.T.);
#380=ORIENTED_EDGE('',*,*,#314,.F.);
#381=ORIENTED_EDGE('',*,*,#313,.F.);
#382=ORIENTED_EDGE('',*,*,#315,.F.);
#383=ORIENTED_EDGE('',*,*,#316,.T.);
#384=ORIENTED_EDGE('',*,*,#317,.T.);
#385=ORIENTED_EDGE('',*,*,#316,.F.);
#386=ORIENTED_EDGE('',*,*,#317,.F.);
#387=ORIENTED_EDGE('',*,*,#318,.T.);
#388=ORIENTED_EDGE('',*,*,#319,.T.);
#389=ORIENTED_EDGE('',*,*,#318,.F.);
#390=ORIENTED_EDGE('',*,*,#319,.F.);
#391=ORIENTED_EDGE('',*,*,#320,.T.);
#392=ORIENTED_EDGE('',*,*,#321,.T.);
#393=ORIENTED_EDGE('',*,*,#320,.F.);
#394=ORIENTED_EDGE('',*,*,#308,.T.);
#395=ORIENTED_EDGE('',*,*,#309,.T.);
#396=ORIENTED_EDGE('',*,*,#322,.T.);
#397=ORIENTED_EDGE('',*,*,#312,.T.);
#398=ORIENTED_EDGE('',*,*,#322,.F.);
#399=ORIENTED_EDGE('',*,*,#314,.T.);
#400=ORIENTED_EDGE('',*,*,#315,.T.);
#401=ORIENTED_EDGE('',*,*,#311,.T.);
#402=ORIENTED_EDGE('',*,*,#321,.F.);
#403=ORIENTED_EDGE('',*,*,#323,.T.);
#404=ORIENTED_EDGE('',*,*,#323,.F.);
#405=ORIENTED_EDGE('',*,*,#324,.T.);
#406=ORIENTED_EDGE('',*,*,#324,.F.);
#407=ORIENTED_EDGE('',*,*,#325,.T.);
#408=ORIENTED_EDGE('',*,*,#325,.F.);
#409=ORIENTED_EDGE('',*,*,#326,.T.);
#410=ORIENTED_EDGE('',*,*,#326,.F.);
#411=ORIENTED_EDGE('',*,*,#327,.T.);
#412=ORIENTED_EDGE('',*,*,#327,.F.);
#413=ORIENTED_EDGE('',*,*,#328,.T.);
#414=ORIENTED_EDGE('',*,*,#328,.F.);
#415=ORIENTED_EDGE('',*,*,#329,.T.);
#416=ORIENTED_EDGE('',*,*,#329,.F.);
#417=ORIENTED_EDGE('',*,*,#330,.T.);
#418=ORIENTED_EDGE('',*,*,#330,.F.);
#419=ORIENTED_EDGE('',*,*,#331,.F.);
#420=ORIENTED_EDGE('',*,*,#332,.T.);
#421=ORIENTED_EDGE('',*,*,#333,.T.);
#422=ORIENTED_EDGE('',*,*,#332,.F.);
#423=ORIENTED_EDGE('',*,*,#334,.F.);
#424=ORIENTED_EDGE('',*,*,#335,.T.);
#425=ORIENTED_EDGE('',*,*,#336,.T.);
#426=ORIENTED_EDGE('',*,*,#335,.F.);
#427=ORIENTED_EDGE('',*,*,#331,.T.);
#428=ORIENTED_EDGE('',*,*,#336,.F.);
#429=ORIENTED_EDGE('',*,*,#333,.F.);
#430=ORIENTED_EDGE('',*,*,#334,.T.);
#431=ORIENTED_EDGE('',*,*,#337,.F.);
#432=ORIENTED_EDGE('',*,*,#338,.T.);
#433=ORIENTED_EDGE('',*,*,#339,.T.);
#434=ORIENTED_EDGE('',*,*,#338,.F.);
#435=ORIENTED_EDGE('',*,*,#340,.F.);
#436=ORIENTED_EDGE('',*,*,#341,.T.);
#437=ORIENTED_EDGE('',*,*,#342,.T.);
#438=ORIENTED_EDGE('',*,*,#341,.F.);
#439=ORIENTED_EDGE('',*,*,#340,.T.);
#440=ORIENTED_EDGE('',*,*,#339,.F.);
#441=ORIENTED_EDGE('',*,*,#342,.F.);
#442=ORIENTED_EDGE('',*,*,#337,.T.);
#443=ORIENTED_EDGE('',*,*,#343,.F.);
#444=ORIENTED_EDGE('',*,*,#344,.T.);
#445=ORIENTED_EDGE('',*,*,#345,.T.);
#446=ORIENTED_EDGE('',*,*,#344,.F.);
#447=ORIENTED_EDGE('',*,*,#346,.F.);
#448=ORIENTED_EDGE('',*,*,#347,.T.);
#449=ORIENTED_EDGE('',*,*,#348,.T.);
#450=ORIENTED_EDGE('',*,*,#347,.F.);
#451=ORIENTED_EDGE('',*,*,#348,.F.);
#452=ORIENTED_EDGE('',*,*,#349,.T.);
#453=ORIENTED_EDGE('',*,*,#350,.T.);
#454=ORIENTED_EDGE('',*,*,#349,.F.);
#455=ORIENTED_EDGE('',*,*,#350,.F.);
#456=ORIENTED_EDGE('',*,*,#351,.T.);
#457=ORIENTED_EDGE('',*,*,#352,.T.);
#458=ORIENTED_EDGE('',*,*,#351,.F.);
#459=ORIENTED_EDGE('',*,*,#353,.T.);
#460=ORIENTED_EDGE('',*,*,#354,.T.);
#461=ORIENTED_EDGE('',*,*,#355,.F.);
#462=ORIENTED_EDGE('',*,*,#354,.F.);
#463=ORIENTED_EDGE('',*,*,#356,.T.);
#464=ORIENTED_EDGE('',*,*,#353,.F.);
#465=ORIENTED_EDGE('',*,*,#357,.T.);
#466=ORIENTED_EDGE('',*,*,#343,.T.);
#467=ORIENTED_EDGE('',*,*,#357,.F.);
#468=ORIENTED_EDGE('',*,*,#356,.F.);
#469=ORIENTED_EDGE('',*,*,#355,.T.);
#470=ORIENTED_EDGE('',*,*,#352,.F.);
#471=ORIENTED_EDGE('',*,*,#345,.F.);
#472=ORIENTED_EDGE('',*,*,#346,.T.);
#473=ORIENTED_EDGE('',*,*,#358,.F.);
#474=ORIENTED_EDGE('',*,*,#359,.T.);
#475=ORIENTED_EDGE('',*,*,#360,.T.);
#476=ORIENTED_EDGE('',*,*,#359,.F.);
#477=ORIENTED_EDGE('',*,*,#361,.F.);
#478=ORIENTED_EDGE('',*,*,#362,.T.);
#479=ORIENTED_EDGE('',*,*,#358,.T.);
#480=ORIENTED_EDGE('',*,*,#362,.F.);
#481=ORIENTED_EDGE('',*,*,#363,.F.);
#482=ORIENTED_EDGE('',*,*,#364,.T.);
#483=ORIENTED_EDGE('',*,*,#365,.T.);
#484=ORIENTED_EDGE('',*,*,#364,.F.);
#485=ORIENTED_EDGE('',*,*,#366,.F.);
#486=ORIENTED_EDGE('',*,*,#367,.F.);
#487=ORIENTED_EDGE('',*,*,#368,.T.);
#488=ORIENTED_EDGE('',*,*,#363,.T.);
#489=ORIENTED_EDGE('',*,*,#368,.F.);
#490=ORIENTED_EDGE('',*,*,#366,.T.);
#491=ORIENTED_EDGE('',*,*,#367,.T.);
#492=ORIENTED_EDGE('',*,*,#369,.T.);
#493=ORIENTED_EDGE('',*,*,#370,.F.);
#494=ORIENTED_EDGE('',*,*,#369,.F.);
#495=ORIENTED_EDGE('',*,*,#360,.F.);
#496=ORIENTED_EDGE('',*,*,#371,.T.);
#497=ORIENTED_EDGE('',*,*,#372,.T.);
#498=ORIENTED_EDGE('',*,*,#371,.F.);
#499=ORIENTED_EDGE('',*,*,#372,.F.);
#500=ORIENTED_EDGE('',*,*,#370,.T.);
#501=ORIENTED_EDGE('',*,*,#361,.T.);
#502=ORIENTED_EDGE('',*,*,#365,.F.);
#503=CONICAL_SURFACE('',#575,2.875,0.785398163397442);
#504=CONICAL_SURFACE('',#579,3.,0.78539816339745);
#505=CONICAL_SURFACE('',#625,2.875,0.78539816339745);
#506=CONICAL_SURFACE('',#636,3.,0.785398163397442);
#507=CONICAL_SURFACE('',#649,1.63,0.805003494254648);
#508=CONICAL_SURFACE('',#655,1.5,0.805003494254656);
#509=ADVANCED_FACE('',(#83),#503,.T.);
#510=ADVANCED_FACE('',(#84),#504,.T.);
#511=ADVANCED_FACE('',(#85),#70,.F.);
#512=ADVANCED_FACE('',(#86),#67,.F.);
#513=ADVANCED_FACE('',(#87),#71,.F.);
#514=ADVANCED_FACE('',(#88),#72,.T.);
#515=ADVANCED_FACE('',(#89,#47),#57,.F.);
#516=ADVANCED_FACE('',(#90,#48),#58,.F.);
#517=ADVANCED_FACE('',(#91),#13,.T.);
#518=ADVANCED_FACE('',(#92),#14,.T.);
#519=ADVANCED_FACE('',(#93),#15,.T.);
#520=ADVANCED_FACE('',(#94),#16,.T.);
#521=ADVANCED_FACE('',(#95),#17,.T.);
#522=ADVANCED_FACE('',(#96),#18,.T.);
#523=ADVANCED_FACE('',(#97),#19,.T.);
#524=ADVANCED_FACE('',(#98),#20,.T.);
#525=ADVANCED_FACE('',(#99),#73,.T.);
#526=ADVANCED_FACE('',(#100),#74,.F.);
#527=ADVANCED_FACE('',(#101,#49),#59,.F.);
#528=ADVANCED_FACE('',(#102,#50),#60,.F.);
#529=ADVANCED_FACE('',(#103),#75,.F.);
#530=ADVANCED_FACE('',(#104),#76,.T.);
#531=ADVANCED_FACE('',(#105,#51),#61,.F.);
#532=ADVANCED_FACE('',(#106,#52),#62,.F.);
#533=ADVANCED_FACE('',(#107),#505,.T.);
#534=ADVANCED_FACE('',(#108),#77,.F.);
#535=ADVANCED_FACE('',(#109),#68,.F.);
#536=ADVANCED_FACE('',(#110),#78,.F.);
#537=ADVANCED_FACE('',(#111),#506,.T.);
#538=ADVANCED_FACE('',(#112),#79,.T.);
#539=ADVANCED_FACE('',(#113,#53),#63,.F.);
#540=ADVANCED_FACE('',(#114,#54),#64,.F.);
#541=ADVANCED_FACE('',(#115),#69,.F.);
#542=ADVANCED_FACE('',(#116),#80,.T.);
#543=ADVANCED_FACE('',(#117),#507,.F.);
#544=ADVANCED_FACE('',(#118),#81,.F.);
#545=ADVANCED_FACE('',(#119),#508,.F.);
#546=ADVANCED_FACE('',(#120),#82,.T.);
#547=ADVANCED_FACE('',(#121,#55),#65,.F.);
#548=ADVANCED_FACE('',(#122,#56),#66,.F.);
#549=CLOSED_SHELL('',(#509,#510,#511,#512,#513,#514,#515,#516));
#550=CLOSED_SHELL('',(#517));
#551=CLOSED_SHELL('',(#518));
#552=CLOSED_SHELL('',(#519));
#553=CLOSED_SHELL('',(#520));
#554=CLOSED_SHELL('',(#521));
#555=CLOSED_SHELL('',(#522));
#556=CLOSED_SHELL('',(#523));
#557=CLOSED_SHELL('',(#524));
#558=CLOSED_SHELL('',(#525,#526,#527,#528));
#559=CLOSED_SHELL('',(#529,#530,#531,#532));
#560=CLOSED_SHELL('',(#533,#534,#535,#536,#537,#538,#539,#540));
#561=CLOSED_SHELL('',(#541,#542,#543,#544,#545,#546,#547,#548));
#562=DERIVED_UNIT_ELEMENT(#564,1.);
#563=DERIVED_UNIT_ELEMENT(#1016,-3.);
#564=(
MASS_UNIT()
NAMED_UNIT(*)
SI_UNIT(.KILO.,.GRAM.)
);
#565=DERIVED_UNIT((#562,#563));
#566=MEASURE_REPRESENTATION_ITEM('density measure',
POSITIVE_RATIO_MEASURE(1280.),#565);
#567=PROPERTY_DEFINITION_REPRESENTATION(#572,#569);
#568=PROPERTY_DEFINITION_REPRESENTATION(#573,#570);
#569=REPRESENTATION('material name',(#571),#1013);
#570=REPRESENTATION('density',(#566),#1013);
#571=DESCRIPTIVE_REPRESENTATION_ITEM('Thermoplastic Resin',
'Thermoplastic Resin');
#572=PROPERTY_DEFINITION('material property','material name',#1023);
#573=PROPERTY_DEFINITION('material property','density of part',#1023);
#574=AXIS2_PLACEMENT_3D('',#854,#661,#662);
#575=AXIS2_PLACEMENT_3D('',#855,#663,#664);
#576=AXIS2_PLACEMENT_3D('',#858,#665,#666);
#577=AXIS2_PLACEMENT_3D('',#859,#667,#668);
#578=AXIS2_PLACEMENT_3D('',#862,#670,#671);
#579=AXIS2_PLACEMENT_3D('',#863,#672,#673);
#580=AXIS2_PLACEMENT_3D('',#865,#674,#675);
#581=AXIS2_PLACEMENT_3D('',#868,#677,#678);
#582=AXIS2_PLACEMENT_3D('',#869,#679,#680);
#583=AXIS2_PLACEMENT_3D('',#871,#681,#682);
#584=AXIS2_PLACEMENT_3D('',#874,#684,#685);
#585=AXIS2_PLACEMENT_3D('',#875,#686,#687);
#586=AXIS2_PLACEMENT_3D('',#877,#688,#689);
#587=AXIS2_PLACEMENT_3D('',#878,#690,#691);
#588=AXIS2_PLACEMENT_3D('',#879,#692,#693);
#589=AXIS2_PLACEMENT_3D('',#882,#695,#696);
#590=AXIS2_PLACEMENT_3D('',#883,#697,#698);
#591=AXIS2_PLACEMENT_3D('',#885,#700,#701);
#592=AXIS2_PLACEMENT_3D('',#886,#702,#703);
#593=AXIS2_PLACEMENT_3D('',#887,#704,#705);
#594=AXIS2_PLACEMENT_3D('',#890,#706,#707);
#595=AXIS2_PLACEMENT_3D('',#891,#708,#709);
#596=AXIS2_PLACEMENT_3D('',#894,#710,#711);
#597=AXIS2_PLACEMENT_3D('',#895,#712,#713);
#598=AXIS2_PLACEMENT_3D('',#898,#714,#715);
#599=AXIS2_PLACEMENT_3D('',#899,#716,#717);
#600=AXIS2_PLACEMENT_3D('',#902,#718,#719);
#601=AXIS2_PLACEMENT_3D('',#903,#720,#721);
#602=AXIS2_PLACEMENT_3D('',#906,#722,#723);
#603=AXIS2_PLACEMENT_3D('',#907,#724,#725);
#604=AXIS2_PLACEMENT_3D('',#910,#726,#727);
#605=AXIS2_PLACEMENT_3D('',#911,#728,#729);
#606=AXIS2_PLACEMENT_3D('',#914,#730,#731);
#607=AXIS2_PLACEMENT_3D('',#915,#732,#733);
#608=AXIS2_PLACEMENT_3D('',#918,#734,#735);
#609=AXIS2_PLACEMENT_3D('',#919,#736,#737);
#610=AXIS2_PLACEMENT_3D('',#921,#738,#739);
#611=AXIS2_PLACEMENT_3D('',#924,#741,#742);
#612=AXIS2_PLACEMENT_3D('',#925,#743,#744);
#613=AXIS2_PLACEMENT_3D('',#927,#745,#746);
#614=AXIS2_PLACEMENT_3D('',#930,#748,#749);
#615=AXIS2_PLACEMENT_3D('',#931,#750,#751);
#616=AXIS2_PLACEMENT_3D('',#932,#752,#753);
#617=AXIS2_PLACEMENT_3D('',#933,#754,#755);
#618=AXIS2_PLACEMENT_3D('',#935,#756,#757);
#619=AXIS2_PLACEMENT_3D('',#938,#759,#760);
#620=AXIS2_PLACEMENT_3D('',#939,#761,#762);
#621=AXIS2_PLACEMENT_3D('',#941,#763,#764);
#622=AXIS2_PLACEMENT_3D('',#944,#766,#767);
#623=AXIS2_PLACEMENT_3D('',#945,#768,#769);
#624=AXIS2_PLACEMENT_3D('',#946,#770,#771);
#625=AXIS2_PLACEMENT_3D('',#947,#772,#773);
#626=AXIS2_PLACEMENT_3D('',#949,#774,#775);
#627=AXIS2_PLACEMENT_3D('',#952,#777,#778);
#628=AXIS2_PLACEMENT_3D('',#953,#779,#780);
#629=AXIS2_PLACEMENT_3D('',#955,#781,#782);
#630=AXIS2_PLACEMENT_3D('',#958,#784,#785);
#631=AXIS2_PLACEMENT_3D('',#959,#786,#787);
#632=AXIS2_PLACEMENT_3D('',#961,#788,#789);
#633=AXIS2_PLACEMENT_3D('',#962,#790,#791);
#634=AXIS2_PLACEMENT_3D('',#963,#792,#793);
#635=AXIS2_PLACEMENT_3D('',#966,#795,#796);
#636=AXIS2_PLACEMENT_3D('',#967,#797,#798);
#637=AXIS2_PLACEMENT_3D('',#970,#799,#800);
#638=AXIS2_PLACEMENT_3D('',#973,#802,#803);
#639=AXIS2_PLACEMENT_3D('',#974,#804,#805);
#640=AXIS2_PLACEMENT_3D('',#975,#806,#807);
#641=AXIS2_PLACEMENT_3D('',#977,#809,#810);
#642=AXIS2_PLACEMENT_3D('',#978,#811,#812);
#643=AXIS2_PLACEMENT_3D('',#979,#813,#814);
#644=AXIS2_PLACEMENT_3D('',#981,#815,#816);
#645=AXIS2_PLACEMENT_3D('',#983,#817,#818);
#646=AXIS2_PLACEMENT_3D('',#984,#819,#820);
#647=AXIS2_PLACEMENT_3D('',#985,#821,#822);
#648=AXIS2_PLACEMENT_3D('',#987,#823,#824);
#649=AXIS2_PLACEMENT_3D('',#989,#826,#827);
#650=AXIS2_PLACEMENT_3D('',#991,#828,#829);
#651=AXIS2_PLACEMENT_3D('',#994,#831,#832);
#652=AXIS2_PLACEMENT_3D('',#995,#833,#834);
#653=AXIS2_PLACEMENT_3D('',#998,#835,#836);
#654=AXIS2_PLACEMENT_3D('',#999,#837,#838);
#655=AXIS2_PLACEMENT_3D('',#1001,#840,#841);
#656=AXIS2_PLACEMENT_3D('',#1004,#843,#844);
#657=AXIS2_PLACEMENT_3D('',#1005,#845,#846);
#658=AXIS2_PLACEMENT_3D('',#1008,#848,#849);
#659=AXIS2_PLACEMENT_3D('',#1009,#850,#851);
#660=AXIS2_PLACEMENT_3D('',#1010,#852,#853);
#661=DIRECTION('axis',(0.,0.,1.));
#662=DIRECTION('refdir',(1.,0.,0.));
#663=DIRECTION('center_axis',(0.,0.,-1.));
#664=DIRECTION('ref_axis',(-1.,0.,0.));
#665=DIRECTION('center_axis',(0.,0.,-1.));
#666=DIRECTION('ref_axis',(-1.,0.,0.));
#667=DIRECTION('center_axis',(0.,0.,-1.));
#668=DIRECTION('ref_axis',(-1.,0.,0.));
#669=DIRECTION('',(-0.707106781186543,8.65956056235487E-17,0.707106781186552));
#670=DIRECTION('center_axis',(0.,0.,1.));
#671=DIRECTION('ref_axis',(-1.,0.,0.));
#672=DIRECTION('center_axis',(0.,0.,1.));
#673=DIRECTION('ref_axis',(1.,0.,0.));
#674=DIRECTION('center_axis',(0.,0.,1.));
#675=DIRECTION('ref_axis',(1.,0.,0.));
#676=DIRECTION('',(0.707106781186549,8.65956056235495E-17,-0.707106781186546));
#677=DIRECTION('center_axis',(0.,0.,-1.));
#678=DIRECTION('ref_axis',(1.,0.,0.));
#679=DIRECTION('center_axis',(0.,0.,1.));
#680=DIRECTION('ref_axis',(1.,0.,0.));
#681=DIRECTION('center_axis',(0.,0.,1.));
#682=DIRECTION('ref_axis',(1.,0.,0.));
#683=DIRECTION('',(0.,0.,1.));
#684=DIRECTION('center_axis',(0.,0.,1.));
#685=DIRECTION('ref_axis',(1.,0.,0.));
#686=DIRECTION('center_axis',(0.,0.,1.));
#687=DIRECTION('ref_axis',(1.,0.,0.));
#688=DIRECTION('center_axis',(-1.22464679914735E-16,1.,0.));
#689=DIRECTION('ref_axis',(-1.,-1.22464679914735E-16,0.));
#690=DIRECTION('center_axis',(0.,0.,1.));
#691=DIRECTION('ref_axis',(1.,0.,0.));
#692=DIRECTION('center_axis',(0.,0.,1.));
#693=DIRECTION('ref_axis',(1.,0.,0.));
#694=DIRECTION('',(0.,0.,1.));
#695=DIRECTION('center_axis',(0.,0.,1.));
#696=DIRECTION('ref_axis',(1.,0.,0.));
#697=DIRECTION('center_axis',(0.,0.,1.));
#698=DIRECTION('ref_axis',(1.,0.,0.));
#699=DIRECTION('',(0.,0.,-1.));
#700=DIRECTION('center_axis',(0.,0.,1.));
#701=DIRECTION('ref_axis',(1.,0.,0.));
#702=DIRECTION('center_axis',(0.,0.,-1.));
#703=DIRECTION('ref_axis',(-1.,0.,0.));
#704=DIRECTION('center_axis',(-1.,0.,0.));
#705=DIRECTION('ref_axis',(0.,1.,0.));
#706=DIRECTION('center_axis',(0.,1.22464679914735E-16,1.));
#707=DIRECTION('ref_axis',(0.,-1.,1.22464679914735E-16));
#708=DIRECTION('center_axis',(-0.707106781186546,0.707106781186549,0.));
#709=DIRECTION('ref_axis',(0.707106781186549,0.707106781186546,0.));
#710=DIRECTION('center_axis',(8.65956056235495E-17,8.65956056235492E-17,
1.));
#711=DIRECTION('ref_axis',(-0.707106781186549,-0.707106781186546,1.22464679914735E-16));
#712=DIRECTION('center_axis',(3.5527136788005E-15,1.,0.));
#713=DIRECTION('ref_axis',(1.,-3.49148133884313E-15,0.));
#714=DIRECTION('center_axis',(1.22464679914735E-16,-4.27583144589696E-31,
1.));
#715=DIRECTION('ref_axis',(-1.,3.49148133884313E-15,1.22464679914735E-16));
#716=DIRECTION('center_axis',(0.707106781186551,0.707106781186544,0.));
#717=DIRECTION('ref_axis',(0.707106781186544,-0.707106781186551,0.));
#718=DIRECTION('center_axis',(8.65956056235488E-17,-8.65956056235497E-17,
1.));
#719=DIRECTION('ref_axis',(-0.707106781186544,0.707106781186551,1.22464679914735E-16));
#720=DIRECTION('center_axis',(1.,-7.10542735760101E-15,0.));
#721=DIRECTION('ref_axis',(-6.98296267768627E-15,-1.,0.));
#722=DIRECTION('center_axis',(-8.55166289179392E-31,-1.22464679914735E-16,
1.));
#723=DIRECTION('ref_axis',(6.98296267768627E-15,1.,1.22464679914735E-16));
#724=DIRECTION('center_axis',(0.707106781186542,-0.707106781186554,0.));
#725=DIRECTION('ref_axis',(-0.707106781186554,-0.707106781186542,0.));
#726=DIRECTION('center_axis',(-8.65956056235501E-17,-8.65956056235486E-17,
1.));
#727=DIRECTION('ref_axis',(0.707106781186554,0.707106781186541,1.22464679914735E-16));
#728=DIRECTION('center_axis',(-1.06581410364015E-14,-1.,0.));
#729=DIRECTION('ref_axis',(-1.,1.04744440165294E-14,0.));
#730=DIRECTION('center_axis',(-1.22464679914735E-16,1.28274943376909E-30,
1.));
#731=DIRECTION('ref_axis',(1.,-1.04744440165294E-14,1.22464679914735E-16));
#732=DIRECTION('center_axis',(-0.707106781186556,-0.707106781186539,0.));
#733=DIRECTION('ref_axis',(-0.707106781186539,0.707106781186556,0.));
#734=DIRECTION('center_axis',(-8.65956056235482E-17,8.65956056235504E-17,
1.));
#735=DIRECTION('ref_axis',(0.707106781186539,-0.707106781186556,1.22464679914735E-16));
#736=DIRECTION('center_axis',(0.,0.,1.));
#737=DIRECTION('ref_axis',(1.,0.,0.));
#738=DIRECTION('center_axis',(0.,0.,1.));
#739=DIRECTION('ref_axis',(1.,0.,0.));
#740=DIRECTION('',(0.,0.,-1.));
#741=DIRECTION('center_axis',(0.,0.,1.));
#742=DIRECTION('ref_axis',(1.,0.,0.));
#743=DIRECTION('center_axis',(0.,0.,1.));
#744=DIRECTION('ref_axis',(1.,0.,0.));
#745=DIRECTION('center_axis',(0.,0.,1.));
#746=DIRECTION('ref_axis',(1.,0.,0.));
#747=DIRECTION('',(0.,0.,1.));
#748=DIRECTION('center_axis',(0.,0.,1.));
#749=DIRECTION('ref_axis',(1.,0.,0.));
#750=DIRECTION('center_axis',(0.,0.,-1.));
#751=DIRECTION('ref_axis',(-1.,0.,0.));
#752=DIRECTION('center_axis',(0.,0.,1.));
#753=DIRECTION('ref_axis',(1.,0.,0.));
#754=DIRECTION('center_axis',(0.,0.,1.));
#755=DIRECTION('ref_axis',(1.,0.,0.));
#756=DIRECTION('center_axis',(0.,0.,1.));
#757=DIRECTION('ref_axis',(1.,0.,0.));
#758=DIRECTION('',(0.,0.,1.));
#759=DIRECTION('center_axis',(0.,0.,1.));
#760=DIRECTION('ref_axis',(1.,0.,0.));
#761=DIRECTION('center_axis',(0.,0.,1.));
#762=DIRECTION('ref_axis',(1.,0.,0.));
#763=DIRECTION('center_axis',(0.,0.,1.));
#764=DIRECTION('ref_axis',(1.,0.,0.));
#765=DIRECTION('',(0.,0.,-1.));
#766=DIRECTION('center_axis',(0.,0.,1.));
#767=DIRECTION('ref_axis',(1.,0.,0.));
#768=DIRECTION('center_axis',(0.,0.,-1.));
#769=DIRECTION('ref_axis',(-1.,0.,0.));
#770=DIRECTION('center_axis',(0.,0.,1.));
#771=DIRECTION('ref_axis',(1.,0.,0.));
#772=DIRECTION('center_axis',(0.,0.,1.));
#773=DIRECTION('ref_axis',(1.,0.,0.));
#774=DIRECTION('center_axis',(0.,0.,1.));
#775=DIRECTION('ref_axis',(1.,0.,0.));
#776=DIRECTION('',(0.707106781186549,8.65956056235495E-17,-0.707106781186546));
#777=DIRECTION('center_axis',(0.,0.,1.));
#778=DIRECTION('ref_axis',(1.,0.,0.));
#779=DIRECTION('center_axis',(0.,0.,1.));
#780=DIRECTION('ref_axis',(1.,0.,0.));
#781=DIRECTION('center_axis',(0.,0.,1.));
#782=DIRECTION('ref_axis',(1.,0.,0.));
#783=DIRECTION('',(0.,0.,1.));
#784=DIRECTION('center_axis',(0.,0.,1.));
#785=DIRECTION('ref_axis',(1.,0.,0.));
#786=DIRECTION('center_axis',(0.,0.,1.));
#787=DIRECTION('ref_axis',(1.,0.,0.));
#788=DIRECTION('center_axis',(-1.22464679914735E-16,1.,0.));
#789=DIRECTION('ref_axis',(-1.,-1.22464679914735E-16,0.));
#790=DIRECTION('center_axis',(0.,0.,1.));
#791=DIRECTION('ref_axis',(1.,0.,0.));
#792=DIRECTION('center_axis',(0.,0.,1.));
#793=DIRECTION('ref_axis',(1.,0.,0.));
#794=DIRECTION('',(0.,0.,1.));
#795=DIRECTION('center_axis',(0.,0.,1.));
#796=DIRECTION('ref_axis',(1.,0.,0.));
#797=DIRECTION('center_axis',(0.,0.,-1.));
#798=DIRECTION('ref_axis',(-1.,0.,0.));
#799=DIRECTION('center_axis',(0.,0.,1.));
#800=DIRECTION('ref_axis',(1.,0.,0.));
#801=DIRECTION('',(-0.707106781186543,8.65956056235487E-17,0.707106781186552));
#802=DIRECTION('center_axis',(0.,0.,1.));
#803=DIRECTION('ref_axis',(1.,0.,0.));
#804=DIRECTION('center_axis',(0.,0.,1.));
#805=DIRECTION('ref_axis',(1.,0.,0.));
#806=DIRECTION('center_axis',(0.,0.,1.));
#807=DIRECTION('ref_axis',(1.,0.,0.));
#808=DIRECTION('',(0.,0.,-1.));
#809=DIRECTION('center_axis',(0.,0.,-1.));
#810=DIRECTION('ref_axis',(-1.,0.,0.));
#811=DIRECTION('center_axis',(0.,0.,1.));
#812=DIRECTION('ref_axis',(1.,0.,0.));
#813=DIRECTION('center_axis',(0.,0.,1.));
#814=DIRECTION('ref_axis',(1.,0.,0.));
#815=DIRECTION('center_axis',(0.,0.,1.));
#816=DIRECTION('ref_axis',(1.,0.,0.));
#817=DIRECTION('center_axis',(-1.22464679914735E-16,1.,0.));
#818=DIRECTION('ref_axis',(-1.,-1.22464679914735E-16,0.));
#819=DIRECTION('center_axis',(0.,0.,1.));
#820=DIRECTION('ref_axis',(1.,0.,0.));
#821=DIRECTION('center_axis',(0.,0.,1.));
#822=DIRECTION('ref_axis',(1.,0.,0.));
#823=DIRECTION('center_axis',(0.,0.,1.));
#824=DIRECTION('ref_axis',(1.,0.,0.));
#825=DIRECTION('',(0.,0.,-1.));
#826=DIRECTION('center_axis',(0.,0.,1.));
#827=DIRECTION('ref_axis',(1.,0.,0.));
#828=DIRECTION('center_axis',(0.,0.,1.));
#829=DIRECTION('ref_axis',(1.,0.,0.));
#830=DIRECTION('',(-0.720833064901852,-8.8276590565163E-17,0.693108716251788));
#831=DIRECTION('center_axis',(0.,0.,1.));
#832=DIRECTION('ref_axis',(1.,0.,0.));
#833=DIRECTION('center_axis',(0.,0.,1.));
#834=DIRECTION('ref_axis',(1.,0.,0.));
#835=DIRECTION('center_axis',(0.,0.,1.));
#836=DIRECTION('ref_axis',(1.,0.,0.));
#837=DIRECTION('center_axis',(0.,0.,1.));
#838=DIRECTION('ref_axis',(1.,0.,0.));
#839=DIRECTION('',(0.,0.,1.));
#840=DIRECTION('center_axis',(0.,0.,-1.));
#841=DIRECTION('ref_axis',(-1.,0.,0.));
#842=DIRECTION('',(0.720833064901858,-8.82765905651636E-17,-0.693108716251783));
#843=DIRECTION('center_axis',(0.,0.,1.));
#844=DIRECTION('ref_axis',(1.,0.,0.));
#845=DIRECTION('center_axis',(0.,0.,1.));
#846=DIRECTION('ref_axis',(1.,0.,0.));
#847=DIRECTION('',(0.,0.,-1.));
#848=DIRECTION('center_axis',(0.,0.,1.));
#849=DIRECTION('ref_axis',(1.,0.,0.));
#850=DIRECTION('center_axis',(0.,0.,1.));
#851=DIRECTION('ref_axis',(1.,0.,0.));
#852=DIRECTION('center_axis',(0.,0.,-1.));
#853=DIRECTION('ref_axis',(-1.,0.,0.));
#854=CARTESIAN_POINT('',(0.,0.,0.));
#855=CARTESIAN_POINT('Origin',(0.,3.06161699786838E-16,1.25));
#856=CARTESIAN_POINT('',(-3.,6.73555739531044E-16,1.125));
#857=CARTESIAN_POINT('',(3.,-6.12323399573676E-17,1.125));
#858=CARTESIAN_POINT('Origin',(0.,3.06161699786838E-16,1.125));
#859=CARTESIAN_POINT('Origin',(0.,3.06161699786838E-16,1.125));
#860=CARTESIAN_POINT('',(2.875,-4.59242549680258E-17,1.25));
#861=CARTESIAN_POINT('',(2.875,-4.59242549680258E-17,1.25));
#862=CARTESIAN_POINT('Origin',(0.,3.06161699786838E-16,1.25));
#863=CARTESIAN_POINT('Origin',(0.,3.06161699786838E-16,-1.125));
#864=CARTESIAN_POINT('',(-3.,-6.12323399573676E-17,-1.125));
#865=CARTESIAN_POINT('Origin',(0.,3.06161699786838E-16,-1.125));
#866=CARTESIAN_POINT('',(-2.875,-4.59242549680256E-17,-1.25));
#867=CARTESIAN_POINT('',(-3.,-6.12323399573676E-17,-1.125));
#868=CARTESIAN_POINT('Origin',(0.,3.06161699786838E-16,-1.25));
#869=CARTESIAN_POINT('Origin',(0.,3.06161699786838E-16,1.25));
#870=CARTESIAN_POINT('',(-2.63,-1.59204083889154E-17,-1.25));
#871=CARTESIAN_POINT('Origin',(0.,3.06161699786838E-16,-1.25));
#872=CARTESIAN_POINT('',(-2.63,-1.59204083889154E-17,-0.327862394915917));
#873=CARTESIAN_POINT('',(-2.63,-1.59204083889154E-17,1.25));
#874=CARTESIAN_POINT('Origin',(0.,3.06161699786838E-16,-0.327862394915917));
#875=CARTESIAN_POINT('Origin',(0.,4.33680868994202E-16,-5.20781051337412E-16));
#876=CARTESIAN_POINT('',(-2.63,1.11598760818448E-16,0.327862394915917));
#877=CARTESIAN_POINT('Origin',(-2.2525,1.5782917748626E-16,-5.20781051337412E-16));
#878=CARTESIAN_POINT('Origin',(0.,3.06161699786838E-16,0.327862394915917));
#879=CARTESIAN_POINT('Origin',(0.,3.06161699786838E-16,1.25));
#880=CARTESIAN_POINT('',(-2.63,-1.59204083889154E-17,1.25));
#881=CARTESIAN_POINT('',(-2.63,-1.59204083889154E-17,1.25));
#882=CARTESIAN_POINT('Origin',(0.,3.06161699786838E-16,1.25));
#883=CARTESIAN_POINT('Origin',(0.,3.06161699786838E-16,1.25));
#884=CARTESIAN_POINT('',(-3.,-6.12323399573676E-17,1.25));
#885=CARTESIAN_POINT('Origin',(0.,3.,-1.25));
#886=CARTESIAN_POINT('Origin',(0.,3.,1.25));
#887=CARTESIAN_POINT('Origin',(0.,2.2525,-5.20781051337412E-16));
#888=CARTESIAN_POINT('',(-0.499999999999999,2.2525,-5.20781051337412E-16));
#889=CARTESIAN_POINT('',(0.499999999999999,2.2525,-5.20781051337412E-16));
#890=CARTESIAN_POINT('Origin',(0.,2.2525,-5.20781051337412E-16));
#891=CARTESIAN_POINT('Origin',(1.5927580246227,1.5927580246227,-5.20781051337412E-16));
#892=CARTESIAN_POINT('',(1.23920463402943,1.94631141521597,-5.20781051337412E-16));
#893=CARTESIAN_POINT('',(1.94631141521597,1.23920463402942,-5.20781051337412E-16));
#894=CARTESIAN_POINT('Origin',(1.5927580246227,1.5927580246227,-5.20781051337412E-16));
#895=CARTESIAN_POINT('Origin',(2.2525,-7.86456171574416E-15,-5.20781051337412E-16));
#896=CARTESIAN_POINT('',(2.2525,0.499999999999992,-5.20781051337412E-16));
#897=CARTESIAN_POINT('',(2.2525,-0.500000000000007,-5.20781051337412E-16));
#898=CARTESIAN_POINT('Origin',(2.2525,-7.86456171574416E-15,-5.20781051337412E-16));
#899=CARTESIAN_POINT('Origin',(1.59275802462269,-1.59275802462271,-5.20781051337412E-16));
#900=CARTESIAN_POINT('',(1.94631141521597,-1.23920463402944,-5.20781051337412E-16));
#901=CARTESIAN_POINT('',(1.23920463402941,-1.94631141521598,-5.20781051337412E-16));
#902=CARTESIAN_POINT('Origin',(1.59275802462269,-1.59275802462271,-5.20781051337412E-16));
#903=CARTESIAN_POINT('Origin',(-1.57291234314883E-14,-2.2525,-5.20781051337412E-16));
#904=CARTESIAN_POINT('',(0.499999999999984,-2.2525,-5.20781051337412E-16));
#905=CARTESIAN_POINT('',(-0.500000000000015,-2.2525,-5.20781051337412E-16));
#906=CARTESIAN_POINT('Origin',(-1.57291234314883E-14,-2.2525,-5.20781051337412E-16));
#907=CARTESIAN_POINT('Origin',(-1.59275802462271,-1.59275802462268,-5.20781051337412E-16));
#908=CARTESIAN_POINT('',(-1.23920463402944,-1.94631141521596,-5.20781051337412E-16));
#909=CARTESIAN_POINT('',(-1.94631141521598,-1.23920463402941,-5.20781051337412E-16));
#910=CARTESIAN_POINT('Origin',(-1.59275802462271,-1.59275802462268,-5.20781051337412E-16));
#911=CARTESIAN_POINT('Origin',(-2.2525,2.35936851472325E-14,-5.20781051337412E-16));
#912=CARTESIAN_POINT('',(-2.25250000000001,-0.499999999999976,-5.20781051337412E-16));
#913=CARTESIAN_POINT('',(-2.25249999999999,0.500000000000023,-5.20781051337412E-16));
#914=CARTESIAN_POINT('Origin',(-2.2525,2.35936851472325E-14,-5.20781051337412E-16));
#915=CARTESIAN_POINT('Origin',(-1.59275802462268,1.59275802462272,-5.20781051337412E-16));
#916=CARTESIAN_POINT('',(-1.94631141521596,1.23920463402945,-5.20781051337412E-16));
#917=CARTESIAN_POINT('',(-1.2392046340294,1.94631141521599,-5.20781051337412E-16));
#918=CARTESIAN_POINT('Origin',(-1.59275802462268,1.59275802462272,-5.20781051337412E-16));
#919=CARTESIAN_POINT('Origin',(0.,3.06161699786838E-16,1.25));
#920=CARTESIAN_POINT('',(-2.63,-1.59204083889154E-17,1.1875));
#921=CARTESIAN_POINT('Origin',(0.,3.06161699786838E-16,1.1875));
#922=CARTESIAN_POINT('',(-2.63,-1.59204083889154E-17,0.499999999999999));
#923=CARTESIAN_POINT('',(-2.63,-1.59204083889154E-17,1.25));
#924=CARTESIAN_POINT('Origin',(0.,3.06161699786838E-16,0.499999999999999));
#925=CARTESIAN_POINT('Origin',(0.,3.06161699786838E-16,1.25));
#926=CARTESIAN_POINT('',(-1.875,7.65404249467097E-17,0.499999999999999));
#927=CARTESIAN_POINT('Origin',(0.,3.06161699786838E-16,0.499999999999999));
#928=CARTESIAN_POINT('',(-1.875,7.65404249467097E-17,1.1875));
#929=CARTESIAN_POINT('',(-1.875,7.65404249467097E-17,1.25));
#930=CARTESIAN_POINT('Origin',(0.,3.06161699786838E-16,1.1875));
#931=CARTESIAN_POINT('Origin',(0.,2.63,1.1875));
#932=CARTESIAN_POINT('Origin',(0.,2.63,0.499999999999999));
#933=CARTESIAN_POINT('Origin',(0.,3.06161699786838E-16,1.25));
#934=CARTESIAN_POINT('',(-1.875,7.65404249467097E-17,-1.1875));
#935=CARTESIAN_POINT('Origin',(0.,3.06161699786838E-16,-1.1875));
#936=CARTESIAN_POINT('',(-1.875,7.65404249467097E-17,-0.499999999999999));
#937=CARTESIAN_POINT('',(-1.875,7.65404249467097E-17,1.25));
#938=CARTESIAN_POINT('Origin',(0.,3.06161699786838E-16,-0.499999999999999));
#939=CARTESIAN_POINT('Origin',(0.,3.06161699786838E-16,1.25));
#940=CARTESIAN_POINT('',(-2.63,-1.59204083889154E-17,-0.5));
#941=CARTESIAN_POINT('Origin',(0.,3.06161699786838E-16,-0.5));
#942=CARTESIAN_POINT('',(-2.63,-1.59204083889154E-17,-1.1875));
#943=CARTESIAN_POINT('',(-2.63,-1.59204083889154E-17,1.25));
#944=CARTESIAN_POINT('Origin',(0.,3.06161699786838E-16,-1.1875));
#945=CARTESIAN_POINT('Origin',(0.,2.63,-0.499999999999999));
#946=CARTESIAN_POINT('Origin',(0.,2.63,-1.1875));
#947=CARTESIAN_POINT('Origin',(0.,3.06161699786838E-16,-1.25));
#948=CARTESIAN_POINT('',(-3.,-6.12323399573676E-17,-1.125));
#949=CARTESIAN_POINT('Origin',(0.,3.06161699786838E-16,-1.125));
#950=CARTESIAN_POINT('',(-2.875,-4.59242549680256E-17,-1.25));
#951=CARTESIAN_POINT('',(-2.875,-4.59242549680256E-17,-1.25));
#952=CARTESIAN_POINT('Origin',(0.,3.06161699786838E-16,-1.25));
#953=CARTESIAN_POINT('Origin',(0.,3.06161699786838E-16,1.25));
#954=CARTESIAN_POINT('',(-2.63,-1.59204083889154E-17,-1.25));
#955=CARTESIAN_POINT('Origin',(0.,3.06161699786838E-16,-1.25));
#956=CARTESIAN_POINT('',(-2.63,-1.59204083889154E-17,-0.327862394915917));
#957=CARTESIAN_POINT('',(-2.63,-1.59204083889154E-17,1.25));
#958=CARTESIAN_POINT('Origin',(0.,3.06161699786838E-16,-0.327862394915917));
#959=CARTESIAN_POINT('Origin',(0.,4.33680868994202E-16,-5.20781051337412E-16));
#960=CARTESIAN_POINT('',(-2.63,1.11598760818448E-16,0.327862394915917));
#961=CARTESIAN_POINT('Origin',(-2.2525,1.5782917748626E-16,-5.20781051337412E-16));
#962=CARTESIAN_POINT('Origin',(0.,3.06161699786838E-16,0.327862394915917));
#963=CARTESIAN_POINT('Origin',(0.,3.06161699786838E-16,1.25));
#964=CARTESIAN_POINT('',(-2.63,-1.59204083889154E-17,1.25));
#965=CARTESIAN_POINT('',(-2.63,-1.59204083889154E-17,1.25));
#966=CARTESIAN_POINT('Origin',(0.,3.06161699786838E-16,1.25));
#967=CARTESIAN_POINT('Origin',(0.,3.06161699786838E-16,1.125));
#968=CARTESIAN_POINT('',(-3.,6.73555739531044E-16,1.125));
#969=CARTESIAN_POINT('',(3.,-6.12323399573677E-17,1.125));
#970=CARTESIAN_POINT('Origin',(0.,3.06161699786838E-16,1.125));
#971=CARTESIAN_POINT('',(2.875,-4.59242549680258E-17,1.25));
#972=CARTESIAN_POINT('',(3.,-6.12323399573676E-17,1.125));
#973=CARTESIAN_POINT('Origin',(0.,3.06161699786838E-16,1.25));
#974=CARTESIAN_POINT('Origin',(0.,3.06161699786838E-16,1.125));
#975=CARTESIAN_POINT('Origin',(0.,3.06161699786838E-16,1.25));
#976=CARTESIAN_POINT('',(-3.,-6.12323399573676E-17,1.25));
#977=CARTESIAN_POINT('Origin',(0.,2.875,1.25));
#978=CARTESIAN_POINT('Origin',(0.,2.875,-1.25));
#979=CARTESIAN_POINT('Origin',(0.,4.33680868994202E-16,-5.20781051337412E-16));
#980=CARTESIAN_POINT('',(-1.875,6.63302143834331E-16,0.327862394915917));
#981=CARTESIAN_POINT('Origin',(0.,3.06161699786838E-16,0.327862394915917));
#982=CARTESIAN_POINT('',(-1.875,2.04059594154073E-16,-0.327862394915917));
#983=CARTESIAN_POINT('Origin',(-2.2525,1.5782917748626E-16,-5.20781051337412E-16));
#984=CARTESIAN_POINT('Origin',(0.,3.06161699786838E-16,-0.327862394915917));
#985=CARTESIAN_POINT('Origin',(0.,3.06161699786838E-16,1.25));
#986=CARTESIAN_POINT('',(-1.875,7.65404249467094E-17,1.25));
#987=CARTESIAN_POINT('Origin',(0.,3.06161699786838E-16,1.25));
#988=CARTESIAN_POINT('',(-1.875,7.65404249467094E-17,1.25));
#989=CARTESIAN_POINT('Origin',(0.,3.06161699786838E-16,1.25));
#990=CARTESIAN_POINT('',(-1.5,1.22464679914735E-16,1.125));
#991=CARTESIAN_POINT('Origin',(0.,3.06161699786838E-16,1.125));
#992=CARTESIAN_POINT('',(-1.63,1.0654427152582E-16,1.25));
#993=CARTESIAN_POINT('',(-1.63,1.0654427152582E-16,1.25));
#994=CARTESIAN_POINT('Origin',(0.,3.06161699786838E-16,1.25));
#995=CARTESIAN_POINT('Origin',(0.,3.06161699786838E-16,1.25));
#996=CARTESIAN_POINT('',(1.5,4.97818923853399E-16,-1.125));
#997=CARTESIAN_POINT('',(-1.5,1.22464679914735E-16,-1.125));
#998=CARTESIAN_POINT('Origin',(0.,3.06161699786838E-16,-1.125));
#999=CARTESIAN_POINT('Origin',(0.,3.06161699786838E-16,-1.125));
#1000=CARTESIAN_POINT('',(-1.5,1.22464679914735E-16,1.25));
#1001=CARTESIAN_POINT('Origin',(0.,3.06161699786838E-16,-1.125));
#1002=CARTESIAN_POINT('',(1.63,1.0654427152582E-16,-1.25));
#1003=CARTESIAN_POINT('',(1.5,1.22464679914735E-16,-1.125));
#1004=CARTESIAN_POINT('Origin',(0.,3.06161699786838E-16,-1.25));
#1005=CARTESIAN_POINT('Origin',(0.,3.06161699786838E-16,1.25));
#1006=CARTESIAN_POINT('',(-1.875,7.65404249467094E-17,-1.25));
#1007=CARTESIAN_POINT('',(-1.875,7.65404249467094E-17,1.25));
#1008=CARTESIAN_POINT('Origin',(0.,3.06161699786838E-16,-1.25));
#1009=CARTESIAN_POINT('Origin',(0.,1.63,-1.25));
#1010=CARTESIAN_POINT('Origin',(0.,1.63,1.25));
#1011=UNCERTAINTY_MEASURE_WITH_UNIT(LENGTH_MEASURE(0.01),#1015,
'DISTANCE_ACCURACY_VALUE',
'Maximum model space distance between geometric entities at asserted c
onnectivities');
#1012=UNCERTAINTY_MEASURE_WITH_UNIT(LENGTH_MEASURE(0.01),#1015,
'DISTANCE_ACCURACY_VALUE',
'Maximum model space distance between geometric entities at asserted c
onnectivities');
#1013=(
GEOMETRIC_REPRESENTATION_CONTEXT(3)
GLOBAL_UNCERTAINTY_ASSIGNED_CONTEXT((#1011))
GLOBAL_UNIT_ASSIGNED_CONTEXT((#1015,#1017,#1018))
REPRESENTATION_CONTEXT('','3D')
);
#1014=(
GEOMETRIC_REPRESENTATION_CONTEXT(3)
GLOBAL_UNCERTAINTY_ASSIGNED_CONTEXT((#1012))
GLOBAL_UNIT_ASSIGNED_CONTEXT((#1015,#1017,#1018))
REPRESENTATION_CONTEXT('','3D')
);
#1015=(
LENGTH_UNIT()
NAMED_UNIT(*)
SI_UNIT(.MILLI.,.METRE.)
);
#1016=(
LENGTH_UNIT()
NAMED_UNIT(*)
SI_UNIT($,.METRE.)
);
#1017=(
NAMED_UNIT(*)
PLANE_ANGLE_UNIT()
SI_UNIT($,.RADIAN.)
);
#1018=(
NAMED_UNIT(*)
SI_UNIT($,.STERADIAN.)
SOLID_ANGLE_UNIT()
);
#1019=SHAPE_DEFINITION_REPRESENTATION(#1020,#1021);
#1020=PRODUCT_DEFINITION_SHAPE('',$,#1023);
#1021=SHAPE_REPRESENTATION('',(#574),#1013);
#1022=PRODUCT_DEFINITION_CONTEXT('part definition',#1027,'design');
#1023=PRODUCT_DEFINITION(
'7487N45_Precision Stainless Steel Ball Bearing','3x6x2.5 Bearing',#1024,
#1022);
#1024=PRODUCT_DEFINITION_FORMATION('',$,#1029);
#1025=PRODUCT_RELATED_PRODUCT_CATEGORY('3x6x2.5 Bearing',
'3x6x2.5 Bearing',(#1029));
#1026=APPLICATION_PROTOCOL_DEFINITION('international standard',
'automotive_design',2009,#1027);
#1027=APPLICATION_CONTEXT(
'Core Data for Automotive Mechanical Design Process');
#1028=PRODUCT_CONTEXT('part definition',#1027,'mechanical');
#1029=PRODUCT('7487N45_Precision Stainless Steel Ball Bearing',
'3x6x2.5 Bearing',$,(#1028));
#1030=PRESENTATION_STYLE_ASSIGNMENT((#1032));
#1031=PRESENTATION_STYLE_ASSIGNMENT((#1033));
#1032=SURFACE_STYLE_USAGE(.BOTH.,#1034);
#1033=SURFACE_STYLE_USAGE(.BOTH.,#1035);
#1034=SURFACE_SIDE_STYLE('',(#1036));
#1035=SURFACE_SIDE_STYLE('',(#1037));
#1036=SURFACE_STYLE_FILL_AREA(#1038);
#1037=SURFACE_STYLE_FILL_AREA(#1039);
#1038=FILL_AREA_STYLE('Plastic - Glossy (Grey)',(#1040));
#1039=FILL_AREA_STYLE('Stainless Steel - Satin',(#1041));
#1040=FILL_AREA_STYLE_COLOUR('Plastic - Glossy (Grey)',#1042);
#1041=FILL_AREA_STYLE_COLOUR('Stainless Steel - Satin',#1043);
#1042=COLOUR_RGB('Plastic - Glossy (Grey)',0.701960784313725,0.701960784313725,
0.701960784313725);
#1043=COLOUR_RGB('Stainless Steel - Satin',0.796078431372549,0.796078431372549,
0.796078431372549);
ENDSEC;
END-ISO-10303-21;
